<?xml version="1.0" encoding="utf-8"?>
<!-- Generator: Adobe Illustrator 18.0.0, SVG Export Plug-In . SVG Version: 6.00 Build 0)  -->
<!DOCTYPE svg PUBLIC "-//W3C//DTD SVG 1.1//EN" "http://www.w3.org/Graphics/SVG/1.1/DTD/svg11.dtd">
<svg version="1.1" id="Layer_1" xmlns="http://www.w3.org/2000/svg" xmlns:xlink="http://www.w3.org/1999/xlink" x="0px" y="0px"
	 viewBox="0 0 74.6 74.6" enable-background="new 0 0 74.6 74.6" xml:space="preserve">
<path fill="#EEB44B" d="M37.3,0C16.7,0,0,16.7,0,37.3s16.7,37.3,37.3,37.3c20.6,0,37.3-16.7,37.3-37.3S57.9,0,37.3,0z M13.8,34.4
	c0-3,2.4-5.4,5.4-5.4s5.4,2.4,5.4,5.4c0,3-2.4,5.4-5.4,5.4S13.8,37.4,13.8,34.4z M55,60l-0.5-2.6l-8.1-4.2H28.3l-8.1,4.2L19.7,60
	l-3.6-0.7L17,55l10.5-5.4h19.8L57.7,55l0.8,4.4L55,60z M55.5,39.8c-3,0-5.4-2.4-5.4-5.4c0-3,2.4-5.4,5.4-5.4c3,0,5.4,2.4,5.4,5.4
	C60.9,37.4,58.5,39.8,55.5,39.8z"/>
</svg>
