<?xml version="1.0" encoding="utf-8"?>
<!-- Generator: Adobe Illustrator 18.0.0, SVG Export Plug-In . SVG Version: 6.00 Build 0)  -->
<!DOCTYPE svg PUBLIC "-//W3C//DTD SVG 1.1//EN" "http://www.w3.org/Graphics/SVG/1.1/DTD/svg11.dtd">
<svg version="1.1" id="Layer_1" xmlns="http://www.w3.org/2000/svg" xmlns:xlink="http://www.w3.org/1999/xlink" x="0px" y="0px"
	 viewBox="0 0 74.6 96.7" enable-background="new 0 0 74.6 96.7" xml:space="preserve">
<path fill="#EEB44B" d="M39.3,14.7v-7c1.3-0.7,2.2-2,2.2-3.6c0-2.3-1.8-4.1-4.1-4.1c-2.3,0-4.1,1.8-4.1,4.1c0,1.6,0.9,2.9,2.2,3.6v7
	C15.7,15.7,0,32,0,51.9v44.8h74.6V51.9C74.6,32,58.9,15.8,39.3,14.7z M17.6,44.7l6.6,6.6l-6.6,6.6L11,51.3L17.6,44.7z M59,81.8
	l-11.4,5.9H27.1l-11.4-5.9l-0.9-5.1l6.4-1.2l0.4,1.9l7.2,3.7H46l7.2-3.7l0.4-1.9l6.4,1.2L59,81.8z M56.9,57.9l-6.6-6.6l6.6-6.6
	l6.6,6.6L56.9,57.9z"/>
</svg>
