<?xml version="1.0" encoding="utf-8"?>
<!-- Generator: Adobe Illustrator 18.0.0, SVG Export Plug-In . SVG Version: 6.00 Build 0)  -->
<!DOCTYPE svg PUBLIC "-//W3C//DTD SVG 1.1//EN" "http://www.w3.org/Graphics/SVG/1.1/DTD/svg11.dtd">
<svg version="1.1" id="Layer_1" xmlns="http://www.w3.org/2000/svg" xmlns:xlink="http://www.w3.org/1999/xlink" x="0px" y="0px"
	 viewBox="0 0 74.6 74.6" enable-background="new 0 0 74.6 74.6" xml:space="preserve">
<path fill="#EEB44B" d="M37.3,0C16.7,0,0,16.7,0,37.3c0,20.6,16.7,37.3,37.3,37.3c20.6,0,37.3-16.7,37.3-37.3
	C74.6,16.7,57.9,0,37.3,0z M13.8,34.4c0-3,2.4-5.4,5.4-5.4c3,0,5.4,2.4,5.4,5.4c0,3-2.4,5.4-5.4,5.4C16.2,39.8,13.8,37.4,13.8,34.4z
	 M57.7,54.1l-10.5,5.4H27.4L17,54.1l-0.8-4.4l3.6-0.7l0.5,2.6l8.1,4.2h18.1l8.1-4.2L55,49l3.6,0.7L57.7,54.1z M55.5,39.8
	c-3,0-5.4-2.4-5.4-5.4c0-3,2.4-5.4,5.4-5.4s5.4,2.4,5.4,5.4C60.9,37.4,58.5,39.8,55.5,39.8z"/>
</svg>
